<svg aria-hidden="true" style="position: absolute; width: 0; height: 0; overflow: hidden;" version="1.1" xmlns="http://www.w3.org/2000/svg" xmlns:xlink="http://www.w3.org/1999/xlink">
<defs>

<symbol id="icon-redo2" viewBox="0 0 32 32">
<path d="M18 7.762v-7.762l12 12-12 12v-7.932c-13.961-0.328-13.362 9.493-9.808 15.932-8.772-9.482-6.909-24.674 9.808-24.238z"></path>
</symbol>


<symbol id="icon-grendelivery" viewBox="0 0 32 32">
<path fill="#0f6" style="fill: var(--color9, #0f6)" d="M4 16h12v2h-12v-2zM2 11h10v2h-10v-2z"></path>
<path fill="#0f6" style="fill: var(--color9, #0f6)" d="M29.919 16.606l-3-7c-0.077-0.18-0.205-0.333-0.368-0.441s-0.355-0.165-0.55-0.165h-3v-2c0-0.265-0.105-0.52-0.293-0.707s-0.442-0.293-0.707-0.293h-16v2h15v12.556c-0.456 0.265-0.854 0.617-1.173 1.036s-0.552 0.898-0.685 1.408h-6.284c-0.243-0.943-0.822-1.764-1.628-2.311s-1.783-0.78-2.749-0.657-1.854 0.593-2.497 1.324c-0.644 0.73-0.999 1.671-0.999 2.644s0.355 1.914 0.999 2.644c0.644 0.73 1.532 1.201 2.497 1.324s1.943-0.111 2.749-0.657c0.806-0.546 1.385-1.368 1.628-2.311h6.284c0.218 0.858 0.715 1.619 1.414 2.163s1.559 0.839 2.444 0.839 1.745-0.295 2.444-0.839c0.699-0.544 1.196-1.305 1.414-2.163h2.142c0.265 0 0.52-0.105 0.707-0.293s0.293-0.442 0.293-0.707v-7c0-0.135-0.028-0.27-0.081-0.394zM9 26c-0.396 0-0.782-0.117-1.111-0.337s-0.585-0.532-0.737-0.898c-0.151-0.366-0.191-0.768-0.114-1.156s0.268-0.744 0.547-1.024c0.28-0.28 0.636-0.47 1.024-0.547s0.79-0.038 1.156 0.114c0.366 0.151 0.678 0.408 0.898 0.737s0.337 0.716 0.337 1.111c-0.001 0.53-0.211 1.039-0.586 1.414s-0.883 0.586-1.414 0.586zM23 11h2.34l2.144 5h-4.484v-5zM23 26c-0.396 0-0.782-0.117-1.111-0.337s-0.585-0.532-0.737-0.898c-0.151-0.366-0.191-0.768-0.114-1.156s0.268-0.744 0.547-1.024c0.28-0.28 0.636-0.47 1.024-0.547s0.79-0.038 1.156 0.114c0.365 0.151 0.678 0.408 0.898 0.737s0.337 0.716 0.337 1.111c-0.001 0.53-0.211 1.039-0.586 1.414s-0.883 0.586-1.414 0.586zM28 23h-1.142c-0.22-0.857-0.719-1.616-1.417-2.159s-1.557-0.839-2.441-0.841v-2h5v5z"></path>
</symbol>

<symbol id="icon-whitedelivery-1" viewBox="0 0 32 32">
<path fill="#fff" style="fill: var(--color8, #fff)" d="M4 16h12v2h-12v-2zM2 11h10v2h-10v-2z"></path>
<path fill="#fff" style="fill: var(--color8, #fff)" d="M29.919 16.606l-3-7c-0.077-0.18-0.205-0.333-0.368-0.441s-0.355-0.165-0.55-0.165h-3v-2c0-0.265-0.105-0.52-0.293-0.707s-0.442-0.293-0.707-0.293h-16v2h15v12.556c-0.456 0.265-0.854 0.617-1.173 1.036s-0.552 0.898-0.685 1.408h-6.284c-0.243-0.943-0.822-1.764-1.628-2.311s-1.783-0.78-2.749-0.657-1.854 0.593-2.497 1.324c-0.644 0.73-0.999 1.671-0.999 2.644s0.355 1.914 0.999 2.644c0.644 0.73 1.532 1.201 2.497 1.324s1.943-0.111 2.749-0.657c0.806-0.546 1.385-1.368 1.628-2.311h6.284c0.218 0.858 0.715 1.619 1.414 2.163s1.559 0.839 2.444 0.839 1.745-0.295 2.444-0.839c0.699-0.544 1.196-1.305 1.414-2.163h2.142c0.265 0 0.52-0.105 0.707-0.293s0.293-0.442 0.293-0.707v-7c0-0.135-0.028-0.27-0.081-0.394zM9 26c-0.396 0-0.782-0.117-1.111-0.337s-0.585-0.532-0.737-0.898c-0.151-0.366-0.191-0.768-0.114-1.156s0.268-0.744 0.547-1.024c0.28-0.28 0.636-0.47 1.024-0.547s0.79-0.038 1.156 0.114c0.366 0.151 0.678 0.408 0.898 0.737s0.337 0.716 0.337 1.111c-0.001 0.53-0.211 1.039-0.586 1.414s-0.883 0.586-1.414 0.586zM23 11h2.34l2.144 5h-4.484v-5zM23 26c-0.396 0-0.782-0.117-1.111-0.337s-0.585-0.532-0.737-0.898c-0.151-0.366-0.191-0.768-0.114-1.156s0.268-0.744 0.547-1.024c0.28-0.28 0.636-0.47 1.024-0.547s0.79-0.038 1.156 0.114c0.365 0.151 0.678 0.408 0.898 0.737s0.337 0.716 0.337 1.111c-0.001 0.53-0.211 1.039-0.586 1.414s-0.883 0.586-1.414 0.586zM28 23h-1.142c-0.22-0.857-0.719-1.616-1.417-2.159s-1.557-0.839-2.441-0.841v-2h5v5z"></path>
</symbol>

<symbol id="icon-ce" viewBox="0 0 32 32">
<path fill="none" stroke="#0f6" style="stroke: var(--color9, #0f6)" stroke-linejoin="round" stroke-linecap="round" stroke-miterlimit="4" stroke-width="1.0667" d="M12 8c-2.122 0-4.157 0.843-5.657 2.343s-2.343 3.535-2.343 5.657c0 2.122 0.843 4.157 2.343 5.657s3.535 2.343 5.657 2.343M28 8c-2.122 0-4.157 0.843-5.657 2.343s-2.343 3.535-2.343 5.657M20 16c0 2.122 0.843 4.157 2.343 5.657s3.535 2.343 5.657 2.343M20 16h8"></path>
</symbol>

</defs>
</svg>
