<svg aria-hidden="true" style="position: absolute; width: 0; height: 0; overflow: hidden;" version="1.1" xmlns="http://www.w3.org/2000/svg" xmlns:xlink="http://www.w3.org/1999/xlink">
<defs>
<symbol id="icon-minus" viewBox="0 0 32 32">
<path d="M25.333 17.331h-18.667v-2.667h18.667v2.667z"></path>
</symbol>

<symbol id="icon-plus" viewBox="0 0 32 32">
<path d="M25.333 17.331h-8v8h-2.667v-8h-8v-2.667h8v-8h2.667v8h8v2.667z"></path>
</symbol>

<symbol id="icon-logo" viewBox="0 0 89 32">
<path fill="#0f0" style="fill: var(--color1, #0f0)" d="M7.534 23.784c-0.241-0.068-0.465-0.198-0.635-0.369-0.217-0.218-0.262-0.356-0.295-0.895-0.051-0.828-0.133-1.693-0.259-2.727-0.157-1.291-0.223-2.023-0.252-2.816-0.024-0.645-0.071-0.982-0.138-1.004-0.056-0.019-0.654 0.348-1.037 0.637-0.357 0.269-1.053 0.926-1.365 1.288l-0.179 0.208-0.028 1.788c-0.034 2.176-0.054 2.461-0.186 2.662-0.107 0.163-0.328 0.317-0.622 0.434-0.167 0.066-0.268 0.079-0.661 0.080-0.462 0.002-0.465 0.001-0.707-0.123-0.364-0.187-0.555-0.485-0.656-1.025-0.023-0.124-0.054-1.344-0.077-3.074-0.054-3.937-0.053-3.983 0.039-4.328 0.159-0.592 0.459-1.047 0.825-1.251 0.175-0.097 0.217-0.106 0.544-0.106 0.314 0 0.379 0.011 0.566 0.1 0.424 0.2 0.75 0.53 0.834 0.846 0.024 0.090 0.020 0.264-0.012 0.564-0.026 0.238-0.040 0.433-0.033 0.433s0.144-0.121 0.304-0.268c0.383-0.355 0.854-0.69 1.247-0.887 0.601-0.301 1.046-0.4 1.648-0.365 0.763 0.044 1.353 0.28 1.8 0.723 0.146 0.145 0.276 0.263 0.287 0.263s0.093-0.049 0.181-0.109c0.274-0.187 0.777-0.428 1.149-0.55 0.545-0.179 0.977-0.244 1.633-0.244 0.627-0 0.942 0.051 1.356 0.22 0.713 0.292 1.304 0.977 1.497 1.736 0.039 0.152 0.15 0.751 0.247 1.331s0.248 1.472 0.335 1.981c0.199 1.171 0.516 3.356 0.516 3.558 0 0.243-0.15 0.503-0.395 0.685-0.298 0.221-0.605 0.316-1.023 0.317-0.704 0.002-1.155-0.276-1.323-0.815-0.094-0.302-0.258-1.353-0.448-2.871-0.212-1.701-0.264-2.071-0.359-2.548-0.184-0.928-0.408-1.372-0.69-1.372-0.064 0-0.234 0.042-0.376 0.092-0.318 0.113-1.458 0.673-1.744 0.855l-0.209 0.134 0.022 0.52c0.026 0.601 0.076 1.055 0.289 2.605 0.185 1.35 0.236 1.853 0.243 2.414 0.005 0.406 0.001 0.433-0.101 0.634-0.129 0.254-0.385 0.476-0.679 0.589-0.272 0.104-0.797 0.129-1.074 0.051z"></path>
<path fill="#00f" style="fill: var(--color2, #00f)" d="M17.344 23.157c-0.601-0.32-0.594-0.282-0.616-3.363-0.011-1.49 0.006-3.287 0.037-3.994 0.051-1.16 0.072-1.306 0.213-1.506 0.225-0.317 0.607-0.478 1.126-0.474 0.578 0.005 0.962 0.216 1.167 0.644 0.082 0.171 0.172 0.301 0.199 0.29s0.319-0.156 0.648-0.321c0.788-0.395 1.67-0.643 2.652-0.746 0.698-0.073 0.861-0.069 1.28 0.035 0.531 0.132 0.866 0.351 1.088 0.712 0.403 0.655 0.488 2.14 0.157 2.732-0.241 0.43-0.613 0.617-1.22 0.613-0.536-0.003-0.831-0.129-1.074-0.456-0.11-0.148-0.149-0.341-0.176-0.87l-0.035-0.679-0.221 0.038c-0.944 0.161-1.881 0.592-2.437 1.12-0.74 0.704-0.685 0.46-0.725 3.219-0.040 2.763-0.017 2.66-0.669 2.993-0.461 0.236-0.964 0.241-1.392 0.013z"></path>
<path fill="#ff2a2a" style="fill: var(--color3, #ff2a2a)" d="M38.768 23.58c-0.202-0.081-0.617-0.374-0.921-0.652-0.502-0.459-0.553-0.734-0.561-2.993-0.010-2.798-0.288-7.202-0.735-11.651l-0.301-2.991-3.221-0.141c-3.364-0.147-4.789-0.427-5.422-1.064-0.587-0.591-0.465-1.758 0.26-2.487 0.615-0.618 0.702-0.634 2.516-0.449 1.034 0.105 4.772 0.219 8.306 0.253 7.402 0.071 11.773 0.309 12.476 0.68 1.308 0.691 1.434 1.831 0.307 2.785l-0.798 0.675-9.452-0.338 0.004 1.43c0.002 0.786 0.109 2.429 0.237 3.652s0.349 4.192 0.492 6.599c0.273 4.595 0.156 5.519-0.796 6.313-0.445 0.371-1.854 0.595-2.392 0.38z"></path>
<path fill="#f0f" style="fill: var(--color4, #f0f)" d="M50.744 22.45c-2.087-0.673-3.663-2.351-4.073-4.335-0.877-4.247 3.044-8.138 7.707-7.648 1.476 0.155 2.526 0.696 3.528 1.817 1.118 1.251 1.478 2.391 1.376 4.356-0.132 2.527-1.263 4.299-3.429 5.371-1.015 0.503-1.471 0.613-2.734 0.66-0.976 0.037-1.822-0.042-2.376-0.22zM54.296 19.507c1.197-0.615 1.559-1.218 1.644-2.738 0.138-2.45-0.951-3.773-2.868-3.484-1.766 0.266-2.919 1.742-2.942 3.767-0.015 1.346 0.35 2.013 1.394 2.548 0.863 0.443 1.789 0.411 2.771-0.093z"></path>
<path fill="#f60" style="fill: var(--color5, #f60)" d="M64.799 31.587c-0.332-0.149-0.7-0.483-0.817-0.742-0.272-0.6 0.028-1.448 1.576-4.46l1.132-2.202-0.365-0.685c-0.201-0.377-1.473-2.368-2.827-4.425s-2.463-3.918-2.463-4.137c0-0.691 0.847-1.303 1.802-1.303 0.751 0 0.913 0.081 1.491 0.748 0.791 0.912 2.742 3.725 3.599 5.187 0.346 0.591 0.673 1.073 0.726 1.071s0.545-0.864 1.094-1.916c1.469-2.815 2.783-4.752 3.398-5.008 0.734-0.306 1.739-0.072 2.195 0.511 0.209 0.267 0.38 0.586 0.38 0.709s-1.435 2.74-3.189 5.816c-2.839 4.979-5.175 9.465-5.175 9.94 0 0.321-0.857 0.976-1.403 1.072-0.302 0.053-0.82-0.026-1.153-0.175z"></path>
<path fill="#ff0" style="fill: var(--color6, #ff0)" d="M80.116 22.59c-2.227-0.631-3.245-1.757-2.32-2.566 0.56-0.489 1.226-0.523 2.811-0.142 2.361 0.567 4.246 0.393 4.746-0.437 0.32-0.533-0.461-1.066-3.056-2.087-2.52-0.991-3.713-1.87-4.088-3.012-0.57-1.736 0.805-3.27 3.418-3.812 1.563-0.324 5.457-0.346 6.19-0.035 0.723 0.307 1.079 1.091 0.91 2.001-0.271 1.452-1.356 1.754-2.582 0.717-0.557-0.471-0.648-0.487-2.107-0.375-1.814 0.14-2.478 0.36-2.478 0.82 0 0.412 0.58 0.769 2.476 1.527 2.047 0.818 3.295 1.47 3.907 2.043 1.908 1.786 1.177 3.986-1.686 5.080-1.409 0.538-4.694 0.686-6.14 0.277z"></path>
<path fill="#4d4d4d" style="fill: var(--color7, #4d4d4d)" d="M28.975 23.645c-0.682-0.095-1.403-0.548-1.671-1.050-0.058-0.109-0.070-0.188-0.070-0.446-0-0.286 0.009-0.329 0.097-0.491 0.135-0.246 0.518-0.595 0.831-0.759 0.439-0.23 0.697-0.287 1.289-0.284 0.457 0.002 0.539 0.011 0.804 0.092 0.162 0.050 0.384 0.138 0.493 0.196 0.268 0.143 0.606 0.484 0.727 0.733 0.084 0.174 0.096 0.234 0.096 0.496 0 0.36-0.065 0.517-0.335 0.811-0.311 0.338-0.768 0.579-1.286 0.679-0.223 0.043-0.742 0.055-0.975 0.023z"></path>
</symbol>

<symbol id="icon-basket" viewBox="0 0 32 28">
<path d="M30 12c1.109 0 2 0.891 2 2s-0.891 2-2 2h-0.234l-1.797 10.344c-0.172 0.953-1 1.656-1.969 1.656h-20c-0.969 0-1.797-0.703-1.969-1.656l-1.797-10.344h-0.234c-1.109 0-2-0.891-2-2s0.891-2 2-2h28zM7.578 24.5c0.547-0.047 0.969-0.531 0.922-1.078l-0.5-6.5c-0.047-0.547-0.531-0.969-1.078-0.922s-0.969 0.531-0.922 1.078l0.5 6.5c0.047 0.516 0.484 0.922 1 0.922h0.078zM14 23.5v-6.5c0-0.547-0.453-1-1-1s-1 0.453-1 1v6.5c0 0.547 0.453 1 1 1s1-0.453 1-1zM20 23.5v-6.5c0-0.547-0.453-1-1-1s-1 0.453-1 1v6.5c0 0.547 0.453 1 1 1s1-0.453 1-1zM25.5 23.578l0.5-6.5c0.047-0.547-0.375-1.031-0.922-1.078s-1.031 0.375-1.078 0.922l-0.5 6.5c-0.047 0.547 0.375 1.031 0.922 1.078h0.078c0.516 0 0.953-0.406 1-0.922zM7.438 4.562l-1.453 6.438h-2.063l1.578-6.891c0.406-1.828 2.016-3.109 3.891-3.109h2.609c0-0.547 0.453-1 1-1h6c0.547 0 1 0.453 1 1h2.609c1.875 0 3.484 1.281 3.891 3.109l1.578 6.891h-2.063l-1.453-6.438c-0.219-0.922-1.016-1.563-1.953-1.563h-2.609c0 0.547-0.453 1-1 1h-6c-0.547 0-1-0.453-1-1h-2.609c-0.938 0-1.734 0.641-1.953 1.563z"></path>
</symbol>

<symbol id="icon-cash-return" viewBox="0 0 32 32">
<path fill="#fff" style="fill: var(--color8, #fff)" d="M16.4 11.907l-3.227-3.24h7.493v4.667h2v-6.667h-9.493l3.227-3.24-1.413-1.427-5.653 5.667 5.653 5.667 1.413-1.427zM16 18.667c-0.791 0-1.564 0.235-2.222 0.674s-1.17 1.064-1.473 1.795c-0.303 0.731-0.382 1.535-0.228 2.311s0.535 1.489 1.095 2.048 1.272 0.94 2.048 1.095c0.776 0.154 1.58 0.075 2.311-0.228s1.356-0.815 1.795-1.473c0.44-0.658 0.674-1.431 0.674-2.222 0-1.061-0.421-2.078-1.172-2.828s-1.768-1.172-2.828-1.172zM4 14.667v16h24v-16zM25.333 25.333c-0.707 0-1.386 0.281-1.886 0.781s-0.781 1.178-0.781 1.886h-13.333c0-0.707-0.281-1.386-0.781-1.886s-1.178-0.781-1.886-0.781v-5.333c0.707 0 1.386-0.281 1.886-0.781s0.781-1.178 0.781-1.886h13.333c0 0.707 0.281 1.386 0.781 1.886s1.178 0.781 1.886 0.781v5.333z"></path>
</symbol>

<symbol id="icon-save" viewBox="0 0 32 32">
<path fill="#fff" style="fill: var(--color8, #fff)" d="M16 0c-8 9.331-16 2.669-16 2.669v5.331c0 10.669 9.331 24 16 24s16-13.331 16-24v-5.331c0 0-8 6.663-16-2.669z"></path>
</symbol>

<symbol id="icon-grendelivery" viewBox="0 0 32 32">
<path fill="#0f6" style="fill: var(--color9, #0f6)" d="M4 16h12v2h-12v-2zM2 11h10v2h-10v-2z"></path>
<path fill="#0f6" style="fill: var(--color9, #0f6)" d="M29.919 16.606l-3-7c-0.077-0.18-0.205-0.333-0.368-0.441s-0.355-0.165-0.55-0.165h-3v-2c0-0.265-0.105-0.52-0.293-0.707s-0.442-0.293-0.707-0.293h-16v2h15v12.556c-0.456 0.265-0.854 0.617-1.173 1.036s-0.552 0.898-0.685 1.408h-6.284c-0.243-0.943-0.822-1.764-1.628-2.311s-1.783-0.78-2.749-0.657-1.854 0.593-2.497 1.324c-0.644 0.73-0.999 1.671-0.999 2.644s0.355 1.914 0.999 2.644c0.644 0.73 1.532 1.201 2.497 1.324s1.943-0.111 2.749-0.657c0.806-0.546 1.385-1.368 1.628-2.311h6.284c0.218 0.858 0.715 1.619 1.414 2.163s1.559 0.839 2.444 0.839 1.745-0.295 2.444-0.839c0.699-0.544 1.196-1.305 1.414-2.163h2.142c0.265 0 0.52-0.105 0.707-0.293s0.293-0.442 0.293-0.707v-7c0-0.135-0.028-0.27-0.081-0.394zM9 26c-0.396 0-0.782-0.117-1.111-0.337s-0.585-0.532-0.737-0.898c-0.151-0.366-0.191-0.768-0.114-1.156s0.268-0.744 0.547-1.024c0.28-0.28 0.636-0.47 1.024-0.547s0.79-0.038 1.156 0.114c0.366 0.151 0.678 0.408 0.898 0.737s0.337 0.716 0.337 1.111c-0.001 0.53-0.211 1.039-0.586 1.414s-0.883 0.586-1.414 0.586zM23 11h2.34l2.144 5h-4.484v-5zM23 26c-0.396 0-0.782-0.117-1.111-0.337s-0.585-0.532-0.737-0.898c-0.151-0.366-0.191-0.768-0.114-1.156s0.268-0.744 0.547-1.024c0.28-0.28 0.636-0.47 1.024-0.547s0.79-0.038 1.156 0.114c0.365 0.151 0.678 0.408 0.898 0.737s0.337 0.716 0.337 1.111c-0.001 0.53-0.211 1.039-0.586 1.414s-0.883 0.586-1.414 0.586zM28 23h-1.142c-0.22-0.857-0.719-1.616-1.417-2.159s-1.557-0.839-2.441-0.841v-2h5v5z"></path>
</symbol>

<symbol id="icon-whitedelivery-1" viewBox="0 0 32 32">
<path fill="#fff" style="fill: var(--color8, #fff)" d="M4 16h12v2h-12v-2zM2 11h10v2h-10v-2z"></path>
<path fill="#fff" style="fill: var(--color8, #fff)" d="M29.919 16.606l-3-7c-0.077-0.18-0.205-0.333-0.368-0.441s-0.355-0.165-0.55-0.165h-3v-2c0-0.265-0.105-0.52-0.293-0.707s-0.442-0.293-0.707-0.293h-16v2h15v12.556c-0.456 0.265-0.854 0.617-1.173 1.036s-0.552 0.898-0.685 1.408h-6.284c-0.243-0.943-0.822-1.764-1.628-2.311s-1.783-0.78-2.749-0.657-1.854 0.593-2.497 1.324c-0.644 0.73-0.999 1.671-0.999 2.644s0.355 1.914 0.999 2.644c0.644 0.73 1.532 1.201 2.497 1.324s1.943-0.111 2.749-0.657c0.806-0.546 1.385-1.368 1.628-2.311h6.284c0.218 0.858 0.715 1.619 1.414 2.163s1.559 0.839 2.444 0.839 1.745-0.295 2.444-0.839c0.699-0.544 1.196-1.305 1.414-2.163h2.142c0.265 0 0.52-0.105 0.707-0.293s0.293-0.442 0.293-0.707v-7c0-0.135-0.028-0.27-0.081-0.394zM9 26c-0.396 0-0.782-0.117-1.111-0.337s-0.585-0.532-0.737-0.898c-0.151-0.366-0.191-0.768-0.114-1.156s0.268-0.744 0.547-1.024c0.28-0.28 0.636-0.47 1.024-0.547s0.79-0.038 1.156 0.114c0.366 0.151 0.678 0.408 0.898 0.737s0.337 0.716 0.337 1.111c-0.001 0.53-0.211 1.039-0.586 1.414s-0.883 0.586-1.414 0.586zM23 11h2.34l2.144 5h-4.484v-5zM23 26c-0.396 0-0.782-0.117-1.111-0.337s-0.585-0.532-0.737-0.898c-0.151-0.366-0.191-0.768-0.114-1.156s0.268-0.744 0.547-1.024c0.28-0.28 0.636-0.47 1.024-0.547s0.79-0.038 1.156 0.114c0.365 0.151 0.678 0.408 0.898 0.737s0.337 0.716 0.337 1.111c-0.001 0.53-0.211 1.039-0.586 1.414s-0.883 0.586-1.414 0.586zM28 23h-1.142c-0.22-0.857-0.719-1.616-1.417-2.159s-1.557-0.839-2.441-0.841v-2h5v5z"></path>
</symbol>

<symbol id="icon-post-office" viewBox="0 0 32 32">
<path fill="#fff" style="fill: var(--color8, #fff)" d="M3.11 11.312h1.875v2.812h-1.875v-2.812zM5.922 11.312h1.875v2.812h-1.875v-2.812zM10.14 11.312h1.875v2.812h-1.875v-2.812zM12.953 11.312h1.875v2.812h-1.875v-2.812zM17.172 11.312h1.875v2.812h-1.875v-2.812zM19.984 11.312h1.875v2.812h-1.875v-2.812zM24.203 11.312h1.875v2.812h-1.875v-2.812zM27.016 11.312h1.875v2.812h-1.875v-2.812zM3.11 16.937h1.875v2.813h-1.875v-2.813zM5.922 16.937h1.875v2.813h-1.875v-2.813zM10.14 16.937h1.875v2.813h-1.875v-2.813zM12.953 16.937h1.875v2.813h-1.875v-2.813zM17.172 16.937h1.875v2.813h-1.875v-2.813zM19.984 16.937h1.875v2.813h-1.875v-2.813zM24.203 16.937h1.875v2.813h-1.875v-2.813zM27.016 16.937h1.875v2.813h-1.875v-2.813zM8.032 24.437h2.812v2.813h-2.812v-2.813zM13.656 23.5h1.875v2.344h-1.875v-2.344zM21.156 24.437h2.813v2.813h-2.813v-2.813zM24.907 24.437h2.812v2.813h-2.812v-2.813zM4.282 24.437h2.812v2.813h-2.812v-2.813zM16.469 23.5h1.875v2.344h-1.875v-2.344zM15.073 5.539c0.082 0.020 0.182 0.027 0.321 0.027 0.509 0 0.823-0.277 0.823-0.74 0-0.418-0.27-0.667-0.748-0.667-0.194 0-0.325 0.020-0.396 0.040l-0 1.34zM18.764 5.7c0 0.889 0.389 1.515 1.030 1.515 0.648 0 1.018-0.66 1.018-1.542 0-0.815-0.364-1.515-1.024-1.515-0.647 0-1.024 0.659-1.024 1.542z"></path>
<path fill="#fff" style="fill: var(--color8, #fff)" d="M31 8.969v-6.563c-0-0.124-0.050-0.243-0.138-0.331s-0.207-0.137-0.331-0.138h-0.469v-0.938h-28.125v0.938h-0.469c-0.124 0-0.243 0.050-0.331 0.138s-0.137 0.207-0.138 0.331v6.563c0 0.124 0.050 0.243 0.138 0.331s0.207 0.137 0.331 0.138v19.687c-0.124 0-0.243 0.050-0.331 0.138s-0.137 0.207-0.138 0.331v0.938c0 0.124 0.050 0.243 0.138 0.331s0.207 0.137 0.331 0.137h29.063c0.124-0 0.243-0.050 0.331-0.138s0.137-0.207 0.138-0.331v-0.938c-0-0.124-0.050-0.243-0.138-0.331s-0.207-0.137-0.331-0.138v-19.688c0.124-0 0.243-0.050 0.331-0.137s0.137-0.207 0.138-0.331zM2.406 15.063v-4.688h27.187v4.688h-27.187zM29.594 16v4.688h-27.187v-4.688h27.187zM20.219 29.125v-5.625h-0.938v5.625h-0.938v-2.344h-1.875v2.344h-0.938v-2.344h-1.875v2.344h-0.938v-5.625h-0.938v5.625h-0.938v-0.938h-7.5v-4.688h7.5v-1.875h10.312v1.875h7.5v4.688h-7.5v0.938h-0.938zM25.87 4.28v-0.862h3.255v0.862h-1.156v3.677h-0.961v-3.677h-1.137zM23.68 6.051c-0.703-0.263-1.162-0.68-1.162-1.34 0-0.774 0.603-1.367 1.602-1.367 0.477 0 0.829 0.107 1.081 0.229l-0.213 0.829c-0.273-0.143-0.577-0.217-0.886-0.215-0.415 0-0.615 0.202-0.615 0.438 0 0.29 0.239 0.418 0.785 0.64 0.748 0.296 1.099 0.714 1.099 1.353 0 0.761-0.547 1.408-1.709 1.408-0.484 0-0.962-0.135-1.2-0.277l0.195-0.848c0.259 0.142 0.654 0.284 1.062 0.284 0.44 0 0.672-0.196 0.672-0.492-0-0.283-0.201-0.444-0.71-0.64zM21.824 5.64c0 1.488-0.842 2.391-2.079 2.391-1.256 0-1.991-1.017-1.991-2.311 0-1.361 0.811-2.377 2.060-2.377 1.301 0 2.010 1.043 2.010 2.296zM17.166 4.798c0 0.444-0.138 0.822-0.39 1.077-0.326 0.33-0.81 0.479-1.376 0.479-0.126 0-0.239-0.008-0.327-0.020v1.623h-0.948v-4.479c0.295-0.054 0.71-0.094 1.293-0.094 0.591 0 1.011 0.122 1.295 0.364 0.27 0.228 0.452 0.605 0.452 1.050zM11.698 3.835h0.552c0 2.576-2.098 4.665-4.688 4.665s-4.688-2.089-4.688-4.665h2.207c0 0.475 0.103 0.925 0.284 1.333 0.046-0.624 0.327-1.207 0.785-1.633s1.062-0.661 1.687-0.66c1.372 0 2.483 1.106 2.483 2.469-0 0.518-0.165 1.023-0.47 1.442 1.094-0.537 1.848-1.655 1.848-2.951z"></path>
<path fill="#fff" style="fill: var(--color8, #fff)" d="M7.838 3.698c-0.911 0-1.654 0.738-1.654 1.647 0.001 0.438 0.176 0.857 0.487 1.166s0.73 0.482 1.168 0.481c0.438 0.001 0.858-0.172 1.168-0.481s0.485-0.728 0.487-1.166c-0.002-0.438-0.177-0.857-0.487-1.166s-0.73-0.482-1.168-0.481z"></path>
</symbol>

<symbol id="icon-ref-mon" viewBox="0 0 32 32">
<path fill="#0f6" style="fill: var(--color9, #0f6)" d="M7.568 5.676c5.237-4.292 12.977-3.993 17.867 0.896 5.207 5.207 5.207 13.649 0 18.856s-13.649 5.207-18.856 0c-1.598-1.596-2.763-3.571-3.388-5.741s-0.687-4.463-0.183-6.664l0.103-0.417 2.579 0.68c-0.639 2.43-0.4 5.007 0.675 7.278s2.917 4.089 5.201 5.135c2.284 1.046 4.865 1.252 7.286 0.581s4.528-2.174 5.95-4.246c1.421-2.072 2.066-4.579 1.82-7.079s-1.367-4.834-3.164-6.588c-1.798-1.755-4.157-2.819-6.663-3.005s-4.996 0.519-7.033 1.99l-0.293 0.221 1.356 1.356-6.128 1.413 1.413-6.128 1.46 1.461zM17.34 8v2.667h3.333v2.667h-7.333c-0.167-0-0.327 0.062-0.45 0.174s-0.2 0.267-0.215 0.432c-0.015 0.166 0.033 0.331 0.133 0.464s0.248 0.223 0.412 0.252l0.12 0.011h5.333c0.884 0 1.732 0.351 2.357 0.976s0.976 1.473 0.976 2.357c0 0.884-0.351 1.732-0.976 2.357s-1.473 0.976-2.357 0.976h-1.333v2.667h-2.667v-2.667h-3.333v-2.667h7.333c0.167 0 0.327-0.062 0.45-0.174s0.2-0.267 0.215-0.432c0.015-0.166-0.033-0.331-0.133-0.464s-0.248-0.223-0.412-0.252l-0.12-0.011h-5.333c-0.884 0-1.732-0.351-2.357-0.976s-0.976-1.473-0.976-2.357c0-0.884 0.351-1.732 0.976-2.357s1.473-0.976 2.357-0.976h1.333v-2.667h2.667z"></path>
</symbol>

<symbol id="icon-ce" viewBox="0 0 32 32">
<path fill="none" stroke="#0f6" style="stroke: var(--color9, #0f6)" stroke-linejoin="round" stroke-linecap="round" stroke-miterlimit="4" stroke-width="1.0667" d="M12 8c-2.122 0-4.157 0.843-5.657 2.343s-2.343 3.535-2.343 5.657c0 2.122 0.843 4.157 2.343 5.657s3.535 2.343 5.657 2.343M28 8c-2.122 0-4.157 0.843-5.657 2.343s-2.343 3.535-2.343 5.657M20 16c0 2.122 0.843 4.157 2.343 5.657s3.535 2.343 5.657 2.343M20 16h8"></path>
</symbol>

<symbol id="icon-uiw_pay" viewBox="0 0 32 32">
<path fill="#fff" style="fill: var(--color8, #fff)" d="M18.672 13.659c-0.127-0.001-0.249 0.048-0.339 0.137s-0.142 0.21-0.144 0.336v3.539c0.002 0.127 0.054 0.248 0.145 0.337s0.213 0.138 0.34 0.137h10.661c0.127 0.001 0.249-0.048 0.34-0.137s0.143-0.21 0.145-0.337v-3.539c-0.002-0.127-0.054-0.248-0.145-0.337s-0.213-0.138-0.34-0.137h-10.662zM25.21 2.402c1.475 0.070 2.536 0.362 3.208 0.979 0.664 0.611 1.005 1.496 1.072 2.667v3.355c-0.003 0.286-0.12 0.558-0.324 0.758s-0.48 0.31-0.765 0.307c-0.142 0.002-0.282-0.025-0.414-0.077s-0.251-0.131-0.353-0.23c-0.101-0.099-0.182-0.217-0.238-0.347s-0.085-0.27-0.087-0.412l0.002-3.294c-0.035-0.608-0.181-0.986-0.389-1.178-0.202-0.186-0.816-0.352-1.765-0.4h-20.922c-0.859 0.032-1.418 0.195-1.688 0.427-0.208 0.178-0.365 0.667-0.366 1.514l-0.005 18.832c0.080 0.822 0.261 1.371 0.493 1.645 0.176 0.208 0.722 0.416 1.525 0.518h20.986c0.982 0.019 1.562-0.128 1.757-0.325 0.216-0.219 0.373-0.795 0.373-1.738v-3.272c0-0.587 0.488-1.066 1.091-1.066 0.602 0 1.090 0.478 1.090 1.066v3.272c0 1.44-0.294 2.517-0.984 3.216-0.71 0.72-1.84 1.008-3.349 0.976l-21.093-0.005c-1.435-0.166-2.464-0.56-3.077-1.285-0.555-0.656-0.864-1.592-0.987-2.901v-18.936c0.003-1.402 0.339-2.456 1.11-3.115 0.707-0.608 1.728-0.904 3.083-0.955l21.016 0.002zM29.334 11.528c1.472 0 2.666 1.166 2.666 2.605v3.539c0 1.438-1.194 2.605-2.666 2.605h-10.661c-1.472 0-2.666-1.168-2.666-2.605v-3.539c0-1.438 1.194-2.605 2.666-2.605h10.661zM21.339 14.632c-0.736 0-1.333 0.576-1.333 1.285 0 0.71 0.597 1.285 1.333 1.285s1.333-0.576 1.333-1.285c0-0.71-0.597-1.286-1.333-1.286v0.002z"></path>
</symbol>

<symbol id="icon-menu" viewBox="0 0 32 32">
<path d="M2 6h28v6h-28zM2 14h28v6h-28zM2 22h28v6h-28z"></path>
</symbol>

</defs>
</svg>
